<svg width="684" height="1000" viewBox="0 0 684 1000" fill="none" xmlns="http://www.w3.org/2000/svg">
<path d="M622.914 414.205V0H354.537C354.537 0 207.831 0.00723199 182.228 11.5081C141.237 29.9211 131.462 36.7744 105.187 63.2294C84.7984 83.7572 53.81 136.829 50.2046 143.789C21.3775 199.44 5.04984 276.89 1.54593 309.919C-3.87187 360.988 5.10045 455.047 26.1049 495.578C34.4038 511.591 60.5358 564.409 118.205 584.937C118.205 584.937 112.236 611.786 112.236 632.502C112.236 749.244 129.721 857.442 298.959 859.309H362.048C362.048 859.309 363.55 888.074 363.55 913.883C363.55 939.692 386.081 949.431 393.091 952.936C404.807 958.794 440.157 965.453 440.157 965.453C440.157 965.453 469.041 953.458 477.114 949.431C477.114 949.431 488.675 969.368 500.13 978.482C512.146 988.041 546.846 1000 546.846 1000C546.846 1000 637.395 974.177 637.395 940.281V800.229C644.399 800.541 636.662 800.229 647.949 800.229H684L671.983 527.278C671.979 483.988 647.391 436.015 622.914 414.205ZM63.1552 350.117C63.0916 275.583 76.5693 217.757 121.684 171.638C147.968 151.199 179.646 137.33 211.336 160.361C221.851 166.369 235.87 180.388 234.042 223.947V443.533C214.153 438.348 180.436 438.456 162.893 448.537C138.006 462.836 126.305 497.307 126.305 526.604C83.319 477.786 63.2213 427.49 63.1552 350.117ZM589.328 929.905C590.329 953.787 559.325 959.445 559.325 959.445C559.325 959.445 526.278 953.286 526.278 929.905V887.353C526.278 884.404 526.278 881.504 526.278 878.335V824.264L477.114 824.262L474.745 898.863C474.745 913.883 446.706 924.898 446.706 924.898C446.706 924.898 413.119 914.885 413.119 898.863V797.726L320.99 795.723C198.818 797.726 177.789 700.093 177.789 623.489C177.789 546.885 188.304 535.87 188.304 535.87C188.304 535.87 199.319 513.578 210.335 509.072C221.35 504.566 241.378 500.06 258.903 510.837C276.427 521.613 298.959 541.863 298.959 541.863L289.946 212.932C286.942 159.86 274.873 146.026 270.92 137.33C263.409 120.807 220.766 87.822 202.323 84.7586C235.393 69.7457 253.453 60.2253 297.997 60.2253C375.442 60.2253 545.845 60.2253 545.845 60.2253C545.845 60.2253 545.845 266.29 545.845 330.089V385.037C545.845 385.037 521.636 383.036 499.291 383.036C419.53 383.036 354.836 447.741 354.836 527.274C354.836 654.726 470.54 766.239 589.328 795.723V929.905ZM622.914 733.138C497.916 724.755 411.156 619.985 418.166 527.278C418.166 465.662 450.371 443.023 512.167 443.023C573.959 443.023 615.147 465.656 615.147 527.274L622.914 733.138Z" fill="#782A53"/>
<path d="M428.142 190.742C440.119 190.743 449.831 200.453 449.831 212.43C449.831 224.41 440.119 234.121 428.142 234.121C416.161 234.121 406.45 224.41 406.45 212.43C406.45 200.453 416.161 190.742 428.142 190.742Z" fill="#782A53"/>
<path fill-rule="evenodd" clip-rule="evenodd" d="M428.14 126.816C475.427 126.816 513.761 165.147 513.761 212.432C513.761 259.716 475.427 298.048 428.14 298.048C380.854 298.048 342.52 259.716 342.52 212.432C342.52 165.147 380.854 126.816 428.14 126.816ZM428.14 162.204C400.399 162.204 377.91 184.692 377.91 212.432C377.91 240.172 400.399 262.66 428.14 262.66C455.882 262.66 478.371 240.172 478.371 212.432C478.371 184.692 455.882 162.204 428.14 162.204Z" fill="#782A53"/>
</svg>
